<?xml version="1.0" standalone="no"?><!DOCTYPE svg PUBLIC "-//W3C//DTD SVG 1.1//EN" "http://www.w3.org/Graphics/SVG/1.1/DTD/svg11.dtd"><svg t="1627094658505" class="icon" viewBox="0 0 1024 1024" version="1.1" xmlns="http://www.w3.org/2000/svg" p-id="21749" xmlns:xlink="http://www.w3.org/1999/xlink" width="16" height="16"><defs><style type="text/css">@font-face { font-family: feedback-iconfont; src: url("//at.alicdn.com/t/font_1031158_1uhr8ri0pk5.eot?#iefix") format("embedded-opentype"), url("//at.alicdn.com/t/font_1031158_1uhr8ri0pk5.woff2") format("woff2"), url("//at.alicdn.com/t/font_1031158_1uhr8ri0pk5.woff") format("woff"), url("//at.alicdn.com/t/font_1031158_1uhr8ri0pk5.ttf") format("truetype"), url("//at.alicdn.com/t/font_1031158_1uhr8ri0pk5.svg#iconfont") format("svg"); }
</style></defs><path d="M199.751 570.361c17.331 21.897 37.403 48.351 60.208 79.371 22.806 31.021 46.531 63.177 71.156 96.474 24.632 33.299 48.579 65.684 71.842 97.159 23.268 31.471 44.018 58.608 62.263 81.421 15.709 20.064 30.789 30.931 45.245 32.64l0 0.238c0.697 0.005 1.393 0.002 2.086-0.035 0.692 0.037 1.389 0.039 2.085 0.035l0-0.238c14.456-1.71 29.537-12.575 45.246-32.64 18.244-22.813 38.994-49.95 62.262-81.421 23.263-31.476 47.209-63.86 71.843-97.159 24.626-33.296 48.35-65.452 71.156-96.474 22.805-31.02 42.877-57.474 60.207-79.371 16.425-20.979 21.214-38.087 14.367-51.313-6.836-13.227-22.576-19.843-47.208-19.843-15.511 0-33.069-0.457-52.686-1.363-19.614-0.914-36.26-1.371-49.95-1.371-19.158 0.914-31.471-6.617-36.944-22.576-5.474-15.968-8.209-37.639-8.209-65.004l0-64.317c0-23.719-0.229-47.438-0.685-71.156-0.457-23.719-0.685-46.067-0.685-67.054l0-53.368c0-31.014-5.246-53.598-15.738-67.738C617.126 71.117 596.826 64.05 566.72 64.05c-20.726 0-38.755 0.209-54.17 0.617-15.414-0.408-33.444-0.617-54.169-0.617-30.106 0-50.405 7.068-60.892 21.206-10.492 14.141-15.738 36.725-15.738 67.738l0 53.368c0 20.986-0.228 43.334-0.685 67.054-0.457 23.718-0.685 47.438-0.685 71.156l0 64.317c0 27.365-2.734 49.036-8.209 65.004-5.475 15.959-17.787 23.49-36.946 22.576-13.688 0-30.335 0.457-49.949 1.371-19.616 0.907-37.174 1.363-52.686 1.363-24.633 0-40.371 6.616-47.209 19.843C178.538 532.274 183.327 549.382 199.751 570.361z" p-id="21750" fill="white"></path></svg>