<?xml version="1.0" standalone="no"?><!DOCTYPE svg PUBLIC "-//W3C//DTD SVG 1.1//EN" "http://www.w3.org/Graphics/SVG/1.1/DTD/svg11.dtd"><svg t="1627129744797" class="icon" viewBox="0 0 1024 1024" version="1.1" xmlns="http://www.w3.org/2000/svg" p-id="42411" xmlns:xlink="http://www.w3.org/1999/xlink" width="16" height="16"><defs><style type="text/css">@font-face { font-family: feedback-iconfont; src: url("//at.alicdn.com/t/font_1031158_1uhr8ri0pk5.eot?#iefix") format("embedded-opentype"), url("//at.alicdn.com/t/font_1031158_1uhr8ri0pk5.woff2") format("woff2"), url("//at.alicdn.com/t/font_1031158_1uhr8ri0pk5.woff") format("woff"), url("//at.alicdn.com/t/font_1031158_1uhr8ri0pk5.ttf") format("truetype"), url("//at.alicdn.com/t/font_1031158_1uhr8ri0pk5.svg#iconfont") format("svg"); }
</style></defs><path d="M511.715713 0.597002c282.609217 0 511.715713 229.106496 511.715714 511.715713s-229.106496 511.715713-511.715714 511.715714-511.715713-229.106496-511.715713-511.715714 229.106496-511.715713 511.715713-511.715713z m-26.552359 268.139034c-7.675736-37.014103-39.345253-14.441755-39.345253-14.441755l-210.684731 181.005219c-46.850416 32.977235-2.672293 56.971016-2.672293 56.971016l208.38201 179.95336c41.790117 31.214659 45.201555-16.687618 45.201555-16.687618v-81.476513c212.020877-66.068184 298.98412 196.385119 298.98412 196.385119 7.78945 15.067185 13.645752 0 13.645752 0 81.874514-394.760244-313.31216-413.722154-313.255302-413.80744z" p-id="42412" fill="#CC2020"></path></svg>