<?xml version="1.0" standalone="no"?><!DOCTYPE svg PUBLIC "-//W3C//DTD SVG 1.1//EN" "http://www.w3.org/Graphics/SVG/1.1/DTD/svg11.dtd"><svg t="1627274751136" class="icon" viewBox="0 0 1024 1024" version="1.1" xmlns="http://www.w3.org/2000/svg" p-id="4709" xmlns:xlink="http://www.w3.org/1999/xlink" width="16" height="16"><defs><style type="text/css">@font-face { font-family: feedback-iconfont; src: url("//at.alicdn.com/t/font_1031158_1uhr8ri0pk5.eot?#iefix") format("embedded-opentype"), url("//at.alicdn.com/t/font_1031158_1uhr8ri0pk5.woff2") format("woff2"), url("//at.alicdn.com/t/font_1031158_1uhr8ri0pk5.woff") format("woff"), url("//at.alicdn.com/t/font_1031158_1uhr8ri0pk5.ttf") format("truetype"), url("//at.alicdn.com/t/font_1031158_1uhr8ri0pk5.svg#iconfont") format("svg"); }
</style></defs><path d="M268.802 838.57c1.493-1.322 2.688-2.687 4.053-4.01l0.342-0.427c-5.547 5.376-5.803 5.803-4.352 4.438z" p-id="4710" fill="#ffffff"></path><path d="M383.02 501.504L112.856 366.805l-0.853-0.426c-12.203-5.675-24.32-8.534-35.968-8.534-15.19 0-29.099 5.206-39.125 14.635a49.963 49.963 0 0 0-15.574 36.864v363.35c0 15.103 6.272 31.829 17.707 47.06 11.179 14.934 26.539 27.52 43.307 35.414l270.08 134.699 0.768 0.426 0.213 0.043c12.288 5.675 24.405 8.533 35.968 8.533 15.19 0 29.099-5.162 39.125-14.592 10.027-9.429 15.574-22.528 15.574-36.906V584.107c0-15.147-6.315-31.872-17.707-47.104a117.76 117.76 0 0 0-43.35-35.414zM953.9 372.48a56.49 56.49 0 0 0-39.125-14.635c-11.69 0-23.765 2.902-35.968 8.534L607.79 501.547c-16.768 7.893-32.128 20.48-43.307 35.413-11.435 15.232-17.707 32-17.707 47.104v363.307c0 14.378 5.547 27.477 15.574 36.906 9.984 9.387 23.893 14.592 39.082 14.592h0.17a86.109 86.109 0 0 0 36.012-8.618l269.78-135.083c16.769-7.893 32.172-20.48 43.35-35.413 11.392-15.232 17.664-32 17.664-47.147l1.024-363.264c0-14.336-5.546-27.435-15.53-36.864z m-96-118.272c23.894-11.477 37.462-29.867 37.334-50.432-0.17-20.395-13.696-38.4-37.205-49.365L557.655 12.928c-16.213-7.595-37.12-11.733-58.794-11.733-22.87 0-44.928 4.522-62.08 12.8L133.207 161.536c-23.808 11.52-37.418 29.91-37.248 50.475 0.128 20.352 13.654 38.357 37.163 49.322l300.373 141.483c11.52 5.419 25.515 9.088 40.534 10.752l-1.11 1.024h19.37c22.828 0 44.886-4.565 62.124-12.885L857.9 254.208z" p-id="4711" fill="#ffffff"></path></svg>