<?xml version="1.0" standalone="no"?><!DOCTYPE svg PUBLIC "-//W3C//DTD SVG 1.1//EN" "http://www.w3.org/Graphics/SVG/1.1/DTD/svg11.dtd"><svg t="1627178509178" class="icon" viewBox="0 0 1024 1024" version="1.1" xmlns="http://www.w3.org/2000/svg" p-id="2022" xmlns:xlink="http://www.w3.org/1999/xlink" width="16" height="16"><defs><style type="text/css">@font-face { font-family: feedback-iconfont; src: url("//at.alicdn.com/t/font_1031158_1uhr8ri0pk5.eot?#iefix") format("embedded-opentype"), url("//at.alicdn.com/t/font_1031158_1uhr8ri0pk5.woff2") format("woff2"), url("//at.alicdn.com/t/font_1031158_1uhr8ri0pk5.woff") format("woff"), url("//at.alicdn.com/t/font_1031158_1uhr8ri0pk5.ttf") format("truetype"), url("//at.alicdn.com/t/font_1031158_1uhr8ri0pk5.svg#iconfont") format("svg"); }
</style></defs><path d="M684.84686961 359.58870294a295.74359454 295.74359454 0 0 1 32.37532824 2.00896981c-29.01416543-135.2191486-173.42821573-235.47448849-338.31830886-235.47448735-184.32301566 0-335.30485355 125.56063726-335.30485352 285.1578662 0 92.06492254 50.22425467 167.67174417 134.17602831 226.39548779l-33.49571472 100.83485053 117.21568525-58.72374362a577.57893273 577.57893273 0 0 0 117.40885468 16.76717361c10.54709357 0 20.978285-0.4636085 31.25493952-1.2362886a251.35307989 251.35307989 0 0 1-10.35392297-70.35259111 274.6880411 274.6880411 0 0 1 285.0033304-265.37723726z m-180.26644123-90.90590127a41.91793633 41.91793633 0 1 1 0 83.79723785 42.49744694 42.49744694 0 1 1 0-83.79723785z m-234.62453881 83.79723785a42.49744694 42.49744694 0 1 1 0-83.79723785 41.91793633 41.91793633 0 0 1 0 83.79723785z m720.9498639 268.42932623c0-134.06012734-134.17602946-243.39446679-284.84879461-243.39446678-159.55859527 0-285.1578662 109.2957058-285.1578662 243.39446678s125.63790571 243.39446679 285.1578662 243.3944668a420.68608752 420.68608752 0 0 0 100.44851047-16.76717475l92.14219101 50.3401568-25.22803004-83.83587152c67.30050214-50.57196105 117.52475683-117.52475683 117.52475684-193.17021212z m-377.33869201-41.99520478a33.53434838 33.53434838 0 1 1 0-67.0300631 34.34566327 34.34566327 0 1 1 0 67.0300631z m184.43891893 0a33.53434838 33.53434838 0 0 1 0-67.0300631 34.34566327 34.34566327 0 1 1 0 67.0300631z" p-id="2023" fill="#CC2020"></path></svg>