<?xml version="1.0" standalone="no"?><!DOCTYPE svg PUBLIC "-//W3C//DTD SVG 1.1//EN" "http://www.w3.org/Graphics/SVG/1.1/DTD/svg11.dtd"><svg t="1627180934302" class="icon" viewBox="0 0 1088 1024" version="1.1" xmlns="http://www.w3.org/2000/svg" p-id="8585" xmlns:xlink="http://www.w3.org/1999/xlink" width="17" height="16"><defs><style type="text/css">@font-face { font-family: feedback-iconfont; src: url("//at.alicdn.com/t/font_1031158_1uhr8ri0pk5.eot?#iefix") format("embedded-opentype"), url("//at.alicdn.com/t/font_1031158_1uhr8ri0pk5.woff2") format("woff2"), url("//at.alicdn.com/t/font_1031158_1uhr8ri0pk5.woff") format("woff"), url("//at.alicdn.com/t/font_1031158_1uhr8ri0pk5.ttf") format("truetype"), url("//at.alicdn.com/t/font_1031158_1uhr8ri0pk5.svg#iconfont") format("svg"); }
</style></defs><path d="M571.392 208.704a589.312 589.312 0 0 1 216-58.88 1002.24 1002.24 0 0 1 124.928-9.024 206.144 206.144 0 0 1 121.6 22.272 67.136 67.136 0 0 1 22.336 53.184v568.96a40.832 40.832 0 0 1-6.4 26.24 31.232 31.232 0 0 1-26.112 13.376 42.24 42.24 0 0 1-10.816-1.408 534.336 534.336 0 0 0-124.672-13.888 543.168 543.168 0 0 0-84.672 6.4 633.6 633.6 0 0 0-224.768 62.976 45.184 45.184 0 0 1-6.976 4.16z m-275.2 607.552c-32-2.88-62.72-4.352-91.84-4.352a518.4 518.4 0 0 0-121.6 11.2 49.536 49.536 0 0 1-12.16 1.6 38.784 38.784 0 0 1-38.4-39.488V216.32a71.424 71.424 0 0 1 27.328-53.568 227.264 227.264 0 0 1 124.288-21.888 1010.496 1010.496 0 0 1 125.568 9.024 630.592 630.592 0 0 1 207.424 54.144v670.72a478.4 478.4 0 0 0-220.8-58.496z" p-id="8586" fill="#ffffff"></path></svg>