<?xml version="1.0" standalone="no"?><!DOCTYPE svg PUBLIC "-//W3C//DTD SVG 1.1//EN" "http://www.w3.org/Graphics/SVG/1.1/DTD/svg11.dtd"><svg t="1629546702647" class="icon" viewBox="0 0 1024 1024" version="1.1" xmlns="http://www.w3.org/2000/svg" p-id="9899" xmlns:xlink="http://www.w3.org/1999/xlink" width="16" height="16"><defs><style type="text/css"></style></defs><path d="M991.384462 287.016737c30.696977-30.696977 30.696977-81.34699 0-112.043967l-151.438422-151.438421c-31.208594-31.208594-81.34699-31.208594-112.043967 0L573.393955 178.042468l263.482388 263.994005 154.508119-155.019736zM109.869598 640.543592c-15.860105 15.860105-28.138896 35.81314-34.789908 57.812641L9.592805 937.281039c-13.302023 41.440919 26.092431 80.835373 67.53335 67.53335l238.924807-65.486885c21.487884-6.651012 41.440919-18.929803 57.81264-34.789907l59.34749-59.34749-263.482389-264.50562-59.859105 59.859105zM297.632775 40.929303c-33.766675-33.766675-88.509618-33.766675-122.787909 0l-143.25256 143.252561c-33.766675 33.766675-33.766675 88.509618 0 122.787909l67.53335 67.53335L225.494879 248.1339c16.883337-16.883337 43.999001-16.883337 60.882338 0s16.883337 43.999001 0 61.393954l-125.857607 125.857607 61.393955 61.393954 74.695978-74.695978c16.883337-16.883337 43.999001-16.883337 60.882338 0 16.883337 16.883337 16.883337 43.999001 0 61.393955L283.307519 557.661754l60.882339 60.882338 125.34599-125.857607c16.883337-16.883337 43.999001-16.883337 60.882338 0 16.883337 16.883337 16.883337 43.999001 0 61.393955l-125.34599 125.857606 61.393954 61.393955 0.511617-0.511616 74.184361-74.184362c16.883337-16.883337 43.999001-16.883337 60.882339 0 16.883337 16.883337 16.883337 43.999001 0 61.393955l-74.184362 74.184361-0.511616 0.511617 60.882338 60.882338 125.34599-125.345991c16.883337-16.883337 43.999001-16.883337 60.882339 0 16.883337 16.883337 16.883337 43.999001 0 61.393955l-125.345991 125.34599 73.672746 73.672746c33.766675 33.766675 88.509618 33.766675 122.787909 0l143.25256-143.252561c33.766675-33.766675 33.766675-88.509618 0-122.787909C988.82638 732.122908 297.632775 40.929303 297.632775 40.929303z" p-id="9900" fill="#ffffff"></path></svg>