<?xml version="1.0" standalone="no"?><!DOCTYPE svg PUBLIC "-//W3C//DTD SVG 1.1//EN" "http://www.w3.org/Graphics/SVG/1.1/DTD/svg11.dtd"><svg t="1627658355777" class="icon" viewBox="0 0 1260 1024" version="1.1" xmlns="http://www.w3.org/2000/svg" p-id="8643" xmlns:xlink="http://www.w3.org/1999/xlink" width="19.6875" height="16"><defs><style type="text/css">@font-face { font-family: feedback-iconfont; src: url("//at.alicdn.com/t/font_1031158_1uhr8ri0pk5.eot?#iefix") format("embedded-opentype"), url("//at.alicdn.com/t/font_1031158_1uhr8ri0pk5.woff2") format("woff2"), url("//at.alicdn.com/t/font_1031158_1uhr8ri0pk5.woff") format("woff"), url("//at.alicdn.com/t/font_1031158_1uhr8ri0pk5.ttf") format("truetype"), url("//at.alicdn.com/t/font_1031158_1uhr8ri0pk5.svg#iconfont") format("svg"); }
</style></defs><path d="M629.786955 214.338893a229.172475 229.172475 0 0 1 122.808456 422.866952 342.884009 342.884009 0 0 1 220.915269 320.351631c0 88.590032-687.447449 88.590032-687.44745 0a342.884009 342.884009 0 0 1 220.985245-320.491583A229.172475 229.172475 0 0 1 629.786955 214.338893zM916.689901 0.0014a228.542688 228.542688 0 0 1 121.758811 422.377117 342.884009 342.884009 0 0 1 221.964914 320.56156c0 35.477998-119.729498 55.981063-259.262297 61.999027a400.474527 400.474527 0 0 0-149.189532-181.028761 285.643372 285.643372 0 0 0-155.207496-459.11469A228.89257 228.89257 0 0 1 916.689901 0.0014zM343.723725 0.0014a229.172475 229.172475 0 0 1 220.145529 165.074158 285.293491 285.293491 0 0 0-155.347449 458.764809A401.664125 401.664125 0 0 0 259.262296 804.729175C119.729498 799.131069 0 778.488052 0 743.010054a342.884009 342.884009 0 0 1 221.964913-320.771489A228.472712 228.472712 0 0 1 343.723725 0.0014z" fill="#ffffff" p-id="8644"></path></svg>