<?xml version="1.0" standalone="no"?><!DOCTYPE svg PUBLIC "-//W3C//DTD SVG 1.1//EN" "http://www.w3.org/Graphics/SVG/1.1/DTD/svg11.dtd"><svg t="1627092359590" class="icon" viewBox="0 0 1024 1024" version="1.1" xmlns="http://www.w3.org/2000/svg" p-id="1998" width="16" height="16" xmlns:xlink="http://www.w3.org/1999/xlink"><defs><style type="text/css">@font-face { font-family: feedback-iconfont; src: url("//at.alicdn.com/t/font_1031158_1uhr8ri0pk5.eot?#iefix") format("embedded-opentype"), url("//at.alicdn.com/t/font_1031158_1uhr8ri0pk5.woff2") format("woff2"), url("//at.alicdn.com/t/font_1031158_1uhr8ri0pk5.woff") format("woff"), url("//at.alicdn.com/t/font_1031158_1uhr8ri0pk5.ttf") format("truetype"), url("//at.alicdn.com/t/font_1031158_1uhr8ri0pk5.svg#iconfont") format("svg"); }
</style></defs><path d="M949.1 210.1H406.2c-41.4 0-74.9-33.5-74.9-74.9s33.5-74.9 74.9-74.9h542.9c41.4 0 74.9 33.5 74.9 74.9s-33.5 74.9-74.9 74.9z" p-id="1999" fill="#ffffff"></path><path d="M93.6 135.3m-93.6 0a93.6 93.6 0 1 0 187.2 0 93.6 93.6 0 1 0-187.2 0Z" p-id="2000" fill="#ffffff"></path><path d="M949.1 586.9H406.2c-41.4 0-74.9-33.5-74.9-74.9s33.5-74.9 74.9-74.9h542.9c41.4 0 74.9 33.5 74.9 74.9s-33.5 74.9-74.9 74.9z" p-id="2001" fill="#ffffff"></path><path d="M93.6 512m-93.6 0a93.6 93.6 0 1 0 187.2 0 93.6 93.6 0 1 0-187.2 0Z" p-id="2002" fill="#ffffff"></path><path d="M949.1 963.6H406.2c-41.4 0-74.9-33.5-74.9-74.9s33.5-74.9 74.9-74.9h542.9c41.4 0 74.9 33.5 74.9 74.9s-33.5 74.9-74.9 74.9z" p-id="2003" fill="#ffffff"></path><path d="M93.6 888.7m-93.6 0a93.6 93.6 0 1 0 187.2 0 93.6 93.6 0 1 0-187.2 0Z" p-id="2004" fill="#ffffff"></path></svg>