<?xml version="1.0" standalone="no"?><!DOCTYPE svg PUBLIC "-//W3C//DTD SVG 1.1//EN" "http://www.w3.org/Graphics/SVG/1.1/DTD/svg11.dtd"><svg t="1629546989341" class="icon" viewBox="0 0 1024 1024" version="1.1" xmlns="http://www.w3.org/2000/svg" p-id="16630" xmlns:xlink="http://www.w3.org/1999/xlink" width="16" height="16"><defs><style type="text/css"></style></defs><path d="M292.625 337.625c28.125 33.75 67.5 50.625 112.5 50.625 90 0 163.125-73.125 163.125-163.125 5.625-84.375-56.25-157.5-146.25-163.125h-5.625c-95.625 0-168.75 73.125-168.75 163.125 0 22.5 5.625 45 16.875 67.5-73.125 61.875-118.125 146.25-135 241.875l56.25 5.625c11.25-78.75 50.625-146.25 106.875-202.5zM416.375 118.25c56.25 0 106.875 50.625 106.875 106.875s-50.625 106.875-106.875 106.875-112.5-45-112.5-106.875 50.625-106.875 112.5-106.875zM371.375 866.375c11.25-22.5 16.875-45 16.875-67.5 0-90-73.125-163.125-163.125-163.125s-163.125 73.125-163.125 163.125 73.125 163.125 163.125 163.125c39.375 0 84.375-16.875 112.5-45 56.25 28.125 112.5 45 174.375 45 45 0 90-5.625 129.375-22.5l-16.875-50.625c-84.375 22.5-174.375 16.875-253.125-22.5zM225.125 905.75c-56.25 0-106.875-50.625-106.875-106.875s50.625-106.875 106.875-106.875 106.875 50.625 106.875 106.875c0 56.25-50.625 106.875-106.875 106.875zM883.25 540.125c-11.25-118.125-78.75-225-180-281.25l-28.125 45c78.75 45 135 123.75 151.875 213.75h-28.125c-90 0-163.125 73.125-163.125 163.125s73.125 163.125 163.125 163.125 163.125-73.125 163.125-163.125c0-56.25-33.75-106.875-78.75-140.625zM793.25 776.375c-56.25 0-106.875-50.625-106.875-106.875s50.625-106.875 106.875-106.875c61.875 0 106.875 50.625 106.875 106.875v5.625c0 56.25-45 101.25-106.875 101.25z" fill="#D20001" p-id="16631"></path></svg>