<?xml version="1.0" standalone="no"?><!DOCTYPE svg PUBLIC "-//W3C//DTD SVG 1.1//EN" "http://www.w3.org/Graphics/SVG/1.1/DTD/svg11.dtd"><svg t="1629470882381" class="icon" viewBox="0 0 1260 1024" version="1.1" xmlns="http://www.w3.org/2000/svg" p-id="4675" xmlns:xlink="http://www.w3.org/1999/xlink" width="19.6875" height="16"><defs><style type="text/css"></style></defs><path d="M511.961597 118.14114A118.14114 118.14114 0 1 0 630.102737 0a118.14114 118.14114 0 0 0-118.14114 118.14114zM78.749886 236.282281a118.14114 118.14114 0 1 0 118.141141-118.141141 118.14114 118.14114 0 0 0-118.141141 118.141141z m866.423422 0a118.14114 118.14114 0 1 0 118.14114-118.141141 118.14114 118.14114 0 0 0-118.14114 118.141141zM196.891027 827.029277c0 108.767481 194.080168 196.92943 433.21171 196.929429s433.211711-88.161949 433.211711-196.929429-194.080168-196.92943-433.211711-196.92943-433.211711 88.161949-433.21171 196.92943z" fill="#ffffff" p-id="4676"></path><path d="M385.933369 582.859908A195.731914 195.731914 0 0 0 0.002891 630.099847v196.92943h118.14114c0-98.444068 90.598274-196.888136 267.789338-244.169369z m244.169368-31.507057a979.278974 979.278974 0 0 1 196.92943 19.697072v-59.091217a196.92943 196.92943 0 0 0-393.817566 0v59.091217a979.23768 979.23768 0 0 1 196.888136-19.697072z m433.211711-118.14114a194.080168 194.080168 0 0 0-189.042342 149.648197c177.232357 47.239939 267.789338 145.7253 267.789338 244.169369h118.14114v-196.92943a194.988628 194.988628 0 0 0-196.888136-196.888136z" fill="#ffffff" p-id="4677"></path></svg>