<?xml version="1.0" standalone="no"?><!DOCTYPE svg PUBLIC "-//W3C//DTD SVG 1.1//EN" "http://www.w3.org/Graphics/SVG/1.1/DTD/svg11.dtd"><svg t="1627115676684" class="icon" viewBox="0 0 1024 1024" version="1.1" xmlns="http://www.w3.org/2000/svg" p-id="31713" xmlns:xlink="http://www.w3.org/1999/xlink" width="16" height="16"><defs><style type="text/css">@font-face { font-family: feedback-iconfont; src: url("//at.alicdn.com/t/font_1031158_1uhr8ri0pk5.eot?#iefix") format("embedded-opentype"), url("//at.alicdn.com/t/font_1031158_1uhr8ri0pk5.woff2") format("woff2"), url("//at.alicdn.com/t/font_1031158_1uhr8ri0pk5.woff") format("woff"), url("//at.alicdn.com/t/font_1031158_1uhr8ri0pk5.ttf") format("truetype"), url("//at.alicdn.com/t/font_1031158_1uhr8ri0pk5.svg#iconfont") format("svg"); }
</style></defs><path d="M857.6 243.2L672 428.8v524.8c0 19.2-6.4 38.4-19.2 51.2-12.8 12.8-32 19.2-51.2 19.2-19.2 0-38.4-6.4-51.2-19.2-12.8-12.8-19.2-32-19.2-51.2V710.4h-38.4v243.2c0 19.2-6.4 38.4-19.2 51.2-19.2 12.8-32 19.2-51.2 19.2-19.2 0-38.4-6.4-51.2-19.2-12.8-12.8-19.2-32-19.2-51.2V428.8L166.4 243.2c-12.8-6.4-19.2-25.6-19.2-38.4s6.4-32 19.2-44.8c12.8-12.8 25.6-19.2 38.4-19.2s32 6.4 44.8 19.2l147.2 147.2h230.4L774.4 160c12.8-12.8 25.6-19.2 44.8-19.2 19.2 0 32 6.4 44.8 19.2 12.8 12.8 19.2 25.6 19.2 44.8s-12.8 32-25.6 38.4zM652.8 140.8c0 38.4-12.8 70.4-38.4 102.4-32 25.6-64 38.4-102.4 38.4-38.4 0-70.4-12.8-102.4-38.4s-38.4-64-38.4-102.4c0-38.4 12.8-70.4 38.4-102.4S473.6 0 512 0c38.4 0 70.4 12.8 102.4 38.4 25.6 32 38.4 64 38.4 102.4z" p-id="31714" fill="#ffffff"></path></svg>