<?xml version="1.0" standalone="no"?><!DOCTYPE svg PUBLIC "-//W3C//DTD SVG 1.1//EN" "http://www.w3.org/Graphics/SVG/1.1/DTD/svg11.dtd"><svg t="1629545379909" class="icon" viewBox="0 0 1080 1024" version="1.1" xmlns="http://www.w3.org/2000/svg" p-id="5430" xmlns:xlink="http://www.w3.org/1999/xlink" width="16.875" height="16"><defs><style type="text/css"></style></defs><path d="M401.778111 778.346574a987.833895 987.833895 0 0 1-135.749225-24.916995c-16.836415 97.529662-4.501715 171.24525 37.341729 195.464478s111.845116-2.115806 187.946613-65.274871a987.878912 987.878912 0 0 1-89.539117-105.182578z m90.146849 6.752573c16.026106 19.109781 32.25479 36.914065 48.325913 53.165257a851.319378 851.319378 0 0 0 48.415948-53.165257q-48.348422 1.845703-96.786879 0zM201.991986 343.188265C178.718118 214.709311 198.840786 111.822608 270.102939 70.654421s170.592501-7.157727 270.102917 77.316961q21.158062-18.006861 42.271107-32.862522a33.177642 33.177642 0 1 1 38.26458 54.178143q-15.756004 11.07422-31.512007 24.174212a987.923929 987.923929 0 0 1 89.449082 105.13756 986.280803 986.280803 0 0 1 135.749225 24.916994c1.755669-10.421471 3.196218-20.640365 4.299138-30.566647a33.177642 33.177642 0 1 1 65.905112 7.247762q-2.250858 20.955485-6.32491 42.923855c122.964353 44.071793 202.104508 112.993054 202.104508 195.374444s-79.072629 151.257634-201.969457 195.284409c23.273868 128.456446 3.173709 231.343149-68.133461 272.556352s-170.547484 7.11271-270.102917-77.226925c-99.600451 84.362145-198.795747 118.395112-270.102917 77.226925s-91.474855-144.054889-68.178478-272.556352c-122.761776-44.004267-201.924439-112.948037-201.92444-195.306918s79.072629-151.257634 201.92444-195.284409z m63.969375-19.672496a990.039735 990.039735 0 0 1 135.929293-24.962011 997.129937 997.129937 0 0 1 89.539117-105.047526c-76.146514-63.40666-146.170695-89.674169-188.081665-65.454941s-54.178144 97.889799-37.341728 195.419461z m274.244495-84.992384c-16.251192 16.431261-32.502384 34.213036-48.460965 53.255292q48.438457-1.868212 96.92193 0a881.615922 881.615922 0 0 0-48.460965-53.255292z m274.357038 514.861177a982.026682 982.026682 0 0 1-135.749224 24.962012 987.856403 987.856403 0 0 1-89.539117 105.182577c76.101497 63.271608 146.035644 89.539117 187.946613 65.274872s54.178144-97.979833 37.341728-195.509495z m-463.811726-49.631411q-25.77232-40.943101-48.325914-83.776921-12.3347 33.762865-21.878336 68.448581c22.193456 5.85223 45.647393 10.984185 70.20425 15.32834z m87.423311 11.5469a1140.869706 1140.869706 0 0 0 204.197806 0 1152.439114 1152.439114 0 0 0 102.098902-176.782359 1140.847197 1140.847197 0 0 0-102.098902-176.872394 1140.869706 1140.869706 0 0 0-204.28784 0 1152.146503 1152.146503 0 0 0-102.008869 176.827376 1140.847197 1140.847197 0 0 0 102.098903 176.827377zM778.234052 457.149188c8.485733-23.318885 15.756004-46.255125 21.878336-68.583633-22.193456-5.85223-45.69241-10.984185-70.294284-15.373357q25.817337 41.010626 48.415948 83.911973zM216.982698 408.373103c-92.870386 34.258053-150.604885 81.706133-150.604885 130.077063s57.734499 95.886536 150.604885 129.987029a988.779255 988.779255 0 0 1 46.367668-129.964521 987.833895 987.833895 0 0 1-46.300142-130.032046z m63.56422-19.852565c6.054807 22.103422 13.302569 45.017153 21.833319 68.493598q22.508576-42.766295 48.415948-83.821938-36.891557 6.595013-70.249267 15.32834z m582.97213 280.0292c92.870386-34.258053 150.604885-81.706133 150.604885-130.077064s-57.779516-95.909044-150.694919-130.12208a994.22633 994.22633 0 0 1-46.210108 130.032046 982.229259 982.229259 0 0 1 46.345159 130.167098z m-63.56422 19.852564q-9.521128-34.685716-21.833319-68.493598-22.508576 42.766295-48.325913 83.821939 35.496025-6.212367 70.181741-15.328341z m-6.144841-493.365487a97.529662 97.529662 0 1 1 97.529662-97.529662 97.507153 97.507153 0 0 1-97.529662 97.529662z" p-id="5431" fill="#ffffff"></path></svg>