<?xml version="1.0" standalone="no"?><!DOCTYPE svg PUBLIC "-//W3C//DTD SVG 1.1//EN" "http://www.w3.org/Graphics/SVG/1.1/DTD/svg11.dtd"><svg t="1629547334944" class="icon" viewBox="0 0 1079 1024" version="1.1" xmlns="http://www.w3.org/2000/svg" p-id="21999" xmlns:xlink="http://www.w3.org/1999/xlink" width="16.859375" height="16"><defs><style type="text/css"></style></defs><path d="M690.674162 477.820541c74.198486-43.755243 125.592216-127.474162 125.592216-222.623136 0-140.786162-106.551351-254.948324-239.754378-254.948324-125.564541 0-226.414703 100.822486-239.726703 230.20627-30.443243-49.456432-81.836973-81.809297-140.813838-81.809297-93.239351 0-169.347459 79.927351-169.347459 180.749838 0 62.823784 28.561297 116.071784 74.226162 148.424649h-5.728865C41.900973 477.820541 0 523.485405 0 578.670703v323.445621c0 55.185297 41.845622 100.850162 95.148973 100.850162h599.344432c51.366054 0 95.121297-45.664865 95.121298-100.850162V576.761081c0-55.185297-41.845622-100.850162-95.121298-100.850162 0 1.909622-3.819243 1.909622-3.819243 1.909622z m-401.463351 0c36.144432-26.651676 62.796108-66.587676 70.406919-110.370595 22.832432 47.602162 57.067243 85.628541 100.822486 110.370595H289.210811z m173.139027-224.532757c0-66.587676 49.484108-117.95373 112.25254-117.95373 62.823784 0 112.280216 53.275676 112.280217 117.95373 0 66.615351-49.484108 119.891027-112.252541 119.891027-60.886486 0-112.280216-53.275676-112.280216-119.891027z m382.450162 496.612324c0-20.922811 9.520432-39.963676 26.651676-51.366054l144.577729-100.850162c13.339676-9.520432 34.262486-5.701189 43.782919 7.610811 3.791568 5.701189 5.701189 11.430054 5.70119 17.131243v321.563676c0 17.103568-13.312 30.443243-30.443244 30.443243-5.701189 0-11.430054-1.937297-17.131243-5.728865l-144.605405-87.510486c-19.013189-11.430054-28.533622-32.352865-28.533622-53.275676v-78.01773z" p-id="22000" fill="#ffffff"></path></svg>