<?xml version="1.0" standalone="no"?><!DOCTYPE svg PUBLIC "-//W3C//DTD SVG 1.1//EN" "http://www.w3.org/Graphics/SVG/1.1/DTD/svg11.dtd"><svg t="1629547598745" class="icon" viewBox="0 0 1024 1024" version="1.1" xmlns="http://www.w3.org/2000/svg" p-id="24541" xmlns:xlink="http://www.w3.org/1999/xlink" width="16" height="16"><defs><style type="text/css"></style></defs><path d="M518.016 576.384c-20.992-17.664-42.752-34.816-63.104-53.376-92.16-84.224-173.312-178.304-247.04-278.656 9.216-27.904 26.368-47.744 53.504-56.192 20.48-6.4 42.112-9.088 63.872-2.688 8.192 2.432 16.768 3.072 25.216 4.48 17.92 2.944 35.712 5.632 53.632 8.704 13.824 2.304 27.52 5.12 41.344 7.424 18.432 3.2 36.992 6.016 55.424 9.216 20.608 3.584 41.088 7.424 61.568 11.008 18.816 3.328 37.76 6.528 56.576 9.856 17.536 3.2 34.944 6.528 52.48 9.728 12.032 2.176 24.192 4.352 36.352 6.656 17.792 3.456 35.456 6.912 53.248 10.496 9.088 1.792 18.176 3.456 27.008 6.016 20.096 5.632 35.712 17.664 47.744 34.048-16.256 32.64-264.064 246.016-317.824 273.28zM235.008 826.368c10.496-4.736 19.328-8.832 28.288-12.8 43.392-18.944 87.04-37.504 130.304-57.088 32.64-14.72 64.896-30.208 96.768-46.592 35.2-17.92 70.144-36.48 104.448-56.064 50.688-29.056 100.224-60.032 147.84-94.208 24.96-17.92 49.152-36.736 73.728-55.168 3.456-2.56 7.296-4.736 12.928-8.448-0.256 6.4-0.128 11.008-0.768 15.488-6.144 37.504-12.544 75.008-18.688 112.512-3.328 20.608-5.376 41.472-9.472 61.952-6.528 32.256-14.976 64-36.48 90.368-20.608 25.088-47.36 37.504-79.232 39.68-44.16 3.072-88.32 5.632-132.352 8.32-35.968 2.176-71.808 4.096-107.776 6.144-41.728 2.432-83.456 4.608-125.312 7.168-13.696 0.768-27.264 3.072-40.96 3.072-14.976 0.256-29.184-3.328-43.264-14.336zM470.016 624.64c-84.352 62.72-174.464 111.232-267.776 155.392-8.192-9.344-8.96-20.864-11.136-31.488-5.504-26.368-4.48-53.248-3.584-80 1.28-36.608 2.432-73.344 3.712-109.952 1.28-38.016 2.56-76.032 3.968-113.92 0.128-2.688 0.896-5.248 1.536-9.344 30.08 22.912 58.624 45.696 88.32 67.2 29.568 21.376 59.776 41.856 90.112 61.952 30.72 20.096 62.08 39.424 94.848 60.16z" p-id="24542" fill="#ffffff"></path></svg>